<svg xmlns="http://www.w3.org/2000/svg" xmlns:xlink="http://www.w3.org/1999/xlink" viewBox="0,0,256,256" width="48px" height="48px"><g fill="#bbbbbb" fill-rule="nonzero" stroke="none" stroke-width="1" stroke-linecap="butt" stroke-linejoin="miter" stroke-miterlimit="10" stroke-dasharray="" stroke-dashoffset="0" font-family="none" font-weight="none" font-size="none" text-anchor="none" style="mix-blend-mode: normal"><g transform="scale(4,4)"><path d="M27,9c-9.925,0 -18,8.075 -18,18c0,9.925 8.075,18 18,18c4.12921,0 7.9263,-1.41263 10.9668,-3.75977l13.08203,13.08203c0.904,0.904 2.36944,0.904 3.27344,0c0.904,-0.904 0.904,-2.36944 0,-3.27344l-13.08203,-13.08203c2.34713,-3.0405 3.75977,-6.83758 3.75977,-10.9668c0,-9.925 -8.075,-18 -18,-18zM27,13c7.719,0 14,6.281 14,14c0,7.719 -6.281,14 -14,14c-7.719,0 -14,-6.281 -14,-14c0,-7.719 6.281,-14 14,-14z"></path></g></g></svg>